<svg xmlns="http://www.w3.org/2000/svg" width="36" height="36" viewBox="0 0 36 36" shape-rendering="crispEdges">
<title>VQEAF OS – recovery – 36px runtime matching</title>
<rect x="22" y="5" width="1" height="1" fill="#93ED8F"/>
<rect x="14" y="6" width="8" height="1" fill="#16CD60"/>
<rect x="22" y="6" width="2" height="1" fill="#93ED8F"/>
<rect x="14" y="7" width="8" height="1" fill="#16CD60"/>
<rect x="22" y="7" width="4" height="1" fill="#93ED8F"/>
<rect x="13" y="8" width="1" height="1" fill="#23313A"/>
<rect x="14" y="8" width="8" height="1" fill="#16CD60"/>
<rect x="22" y="8" width="5" height="1" fill="#93ED8F"/>
<rect x="11" y="9" width="2" height="1" fill="#23313A"/>
<rect x="13" y="9" width="9" height="1" fill="#16CD60"/>
<rect x="22" y="9" width="7" height="1" fill="#93ED8F"/>
<rect x="10" y="10" width="1" height="1" fill="#23313A"/>
<rect x="11" y="10" width="11" height="1" fill="#16CD60"/>
<rect x="22" y="10" width="8" height="1" fill="#93ED8F"/>
<rect x="9" y="11" width="1" height="1" fill="#23313A"/>
<rect x="10" y="11" width="12" height="1" fill="#16CD60"/>
<rect x="22" y="11" width="7" height="1" fill="#93ED8F"/>
<rect x="9" y="12" width="1" height="1" fill="#23313A"/>
<rect x="10" y="12" width="6" height="1" fill="#16CD60"/>
<rect x="16" y="12" width="4" height="1" fill="#FFFFFF"/>
<rect x="20" y="12" width="2" height="1" fill="#16CD60"/>
<rect x="22" y="12" width="5" height="1" fill="#93ED8F"/>
<rect x="8" y="13" width="1" height="1" fill="#23313A"/>
<rect x="9" y="13" width="5" height="1" fill="#16CD60"/>
<rect x="14" y="13" width="8" height="1" fill="#FFFFFF"/>
<rect x="22" y="13" width="4" height="1" fill="#93ED8F"/>
<rect x="26" y="13" width="1" height="1" fill="#16CD60"/>
<rect x="27" y="13" width="1" height="1" fill="#23313A"/>
<rect x="8" y="14" width="1" height="1" fill="#23313A"/>
<rect x="9" y="14" width="4" height="1" fill="#16CD60"/>
<rect x="13" y="14" width="3" height="1" fill="#FFFFFF"/>
<rect x="20" y="14" width="2" height="1" fill="#FFFFFF"/>
<rect x="22" y="14" width="2" height="1" fill="#93ED8F"/>
<rect x="24" y="14" width="3" height="1" fill="#16CD60"/>
<rect x="27" y="14" width="1" height="1" fill="#23313A"/>
<rect x="7" y="15" width="1" height="1" fill="#23313A"/>
<rect x="8" y="15" width="5" height="1" fill="#16CD60"/>
<rect x="13" y="15" width="2" height="1" fill="#FFFFFF"/>
<rect x="21" y="15" width="1" height="1" fill="#FFFFFF"/>
<rect x="22" y="15" width="1" height="1" fill="#93ED8F"/>
<rect x="23" y="15" width="5" height="1" fill="#16CD60"/>
<rect x="28" y="15" width="1" height="1" fill="#23313A"/>
<rect x="7" y="16" width="1" height="1" fill="#23313A"/>
<rect x="8" y="16" width="4" height="1" fill="#16CD60"/>
<rect x="12" y="16" width="2" height="1" fill="#FFFFFF"/>
<rect x="22" y="16" width="2" height="1" fill="#FFFFFF"/>
<rect x="24" y="16" width="4" height="1" fill="#16CD60"/>
<rect x="28" y="16" width="1" height="1" fill="#23313A"/>
<rect x="7" y="17" width="1" height="1" fill="#23313A"/>
<rect x="8" y="17" width="4" height="1" fill="#16CD60"/>
<rect x="12" y="17" width="2" height="1" fill="#FFFFFF"/>
<rect x="22" y="17" width="2" height="1" fill="#FFFFFF"/>
<rect x="24" y="17" width="4" height="1" fill="#16CD60"/>
<rect x="28" y="17" width="1" height="1" fill="#23313A"/>
<rect x="7" y="18" width="1" height="1" fill="#23313A"/>
<rect x="8" y="18" width="4" height="1" fill="#16CD60"/>
<rect x="12" y="18" width="2" height="1" fill="#FFFFFF"/>
<rect x="22" y="18" width="2" height="1" fill="#FFFFFF"/>
<rect x="24" y="18" width="4" height="1" fill="#16CD60"/>
<rect x="28" y="18" width="1" height="1" fill="#23313A"/>
<rect x="7" y="19" width="1" height="1" fill="#23313A"/>
<rect x="8" y="19" width="4" height="1" fill="#16CD60"/>
<rect x="12" y="19" width="2" height="1" fill="#FFFFFF"/>
<rect x="22" y="19" width="2" height="1" fill="#FFFFFF"/>
<rect x="24" y="19" width="4" height="1" fill="#16CD60"/>
<rect x="28" y="19" width="1" height="1" fill="#23313A"/>
<rect x="7" y="20" width="1" height="1" fill="#23313A"/>
<rect x="8" y="20" width="5" height="1" fill="#16CD60"/>
<rect x="13" y="20" width="2" height="1" fill="#FFFFFF"/>
<rect x="21" y="20" width="2" height="1" fill="#FFFFFF"/>
<rect x="23" y="20" width="5" height="1" fill="#16CD60"/>
<rect x="28" y="20" width="1" height="1" fill="#23313A"/>
<rect x="8" y="21" width="1" height="1" fill="#23313A"/>
<rect x="9" y="21" width="4" height="1" fill="#16CD60"/>
<rect x="13" y="21" width="3" height="1" fill="#FFFFFF"/>
<rect x="20" y="21" width="3" height="1" fill="#FFFFFF"/>
<rect x="23" y="21" width="4" height="1" fill="#16CD60"/>
<rect x="27" y="21" width="1" height="1" fill="#23313A"/>
<rect x="8" y="22" width="1" height="1" fill="#23313A"/>
<rect x="9" y="22" width="4" height="1" fill="#16CD60"/>
<rect x="13" y="22" width="9" height="1" fill="#FFFFFF"/>
<rect x="22" y="22" width="5" height="1" fill="#16CD60"/>
<rect x="27" y="22" width="1" height="1" fill="#23313A"/>
<rect x="9" y="23" width="1" height="1" fill="#23313A"/>
<rect x="10" y="23" width="1" height="1" fill="#16CD60"/>
<rect x="11" y="23" width="3" height="1" fill="#FFFFFF"/>
<rect x="14" y="23" width="2" height="1" fill="#16CD60"/>
<rect x="16" y="23" width="4" height="1" fill="#FFFFFF"/>
<rect x="20" y="23" width="6" height="1" fill="#16CD60"/>
<rect x="26" y="23" width="1" height="1" fill="#23313A"/>
<rect x="9" y="24" width="5" height="1" fill="#FFFFFF"/>
<rect x="14" y="24" width="12" height="1" fill="#16CD60"/>
<rect x="26" y="24" width="1" height="1" fill="#23313A"/>
<rect x="7" y="25" width="7" height="1" fill="#FFFFFF"/>
<rect x="14" y="25" width="11" height="1" fill="#16CD60"/>
<rect x="25" y="25" width="1" height="1" fill="#23313A"/>
<rect x="5" y="26" width="9" height="1" fill="#FFFFFF"/>
<rect x="14" y="26" width="9" height="1" fill="#16CD60"/>
<rect x="23" y="26" width="2" height="1" fill="#23313A"/>
<rect x="8" y="27" width="6" height="1" fill="#FFFFFF"/>
<rect x="14" y="27" width="1" height="1" fill="#23313A"/>
<rect x="15" y="27" width="6" height="1" fill="#16CD60"/>
<rect x="21" y="27" width="2" height="1" fill="#23313A"/>
<rect x="10" y="28" width="4" height="1" fill="#FFFFFF"/>
<rect x="15" y="28" width="6" height="1" fill="#23313A"/>
<rect x="13" y="29" width="1" height="1" fill="#FFFFFF"/>
</svg>
