<svg xmlns="http://www.w3.org/2000/svg" width="36" height="36" viewBox="0 0 36 36" shape-rendering="crispEdges">
<title>VQEAF OS – settings – 36px runtime matching</title>
<rect x="18" y="6" width="2" height="1" fill="#566675"/>
<rect x="17" y="7" width="1" height="1" fill="#566675"/>
<rect x="18" y="7" width="2" height="1" fill="#D3E0E7"/>
<rect x="20" y="7" width="2" height="1" fill="#566675"/>
<rect x="11" y="8" width="3" height="1" fill="#566675"/>
<rect x="17" y="8" width="1" height="1" fill="#566675"/>
<rect x="18" y="8" width="4" height="1" fill="#D3E0E7"/>
<rect x="22" y="8" width="1" height="1" fill="#566675"/>
<rect x="9" y="9" width="2" height="1" fill="#566675"/>
<rect x="11" y="9" width="3" height="1" fill="#D3E0E7"/>
<rect x="14" y="9" width="3" height="1" fill="#566675"/>
<rect x="17" y="9" width="5" height="1" fill="#D3E0E7"/>
<rect x="22" y="9" width="1" height="1" fill="#566675"/>
<rect x="25" y="9" width="3" height="1" fill="#566675"/>
<rect x="9" y="10" width="1" height="1" fill="#566675"/>
<rect x="10" y="10" width="13" height="1" fill="#D3E0E7"/>
<rect x="23" y="10" width="2" height="1" fill="#566675"/>
<rect x="25" y="10" width="2" height="1" fill="#D3E0E7"/>
<rect x="27" y="10" width="1" height="1" fill="#566675"/>
<rect x="9" y="11" width="1" height="1" fill="#566675"/>
<rect x="10" y="11" width="18" height="1" fill="#D3E0E7"/>
<rect x="28" y="11" width="1" height="1" fill="#566675"/>
<rect x="10" y="12" width="1" height="1" fill="#566675"/>
<rect x="11" y="12" width="5" height="1" fill="#D3E0E7"/>
<rect x="16" y="12" width="4" height="1" fill="#566675"/>
<rect x="20" y="12" width="8" height="1" fill="#D3E0E7"/>
<rect x="28" y="12" width="1" height="1" fill="#566675"/>
<rect x="10" y="13" width="1" height="1" fill="#566675"/>
<rect x="11" y="13" width="3" height="1" fill="#D3E0E7"/>
<rect x="14" y="13" width="8" height="1" fill="#566675"/>
<rect x="22" y="13" width="6" height="1" fill="#D3E0E7"/>
<rect x="28" y="13" width="1" height="1" fill="#566675"/>
<rect x="8" y="14" width="2" height="1" fill="#566675"/>
<rect x="10" y="14" width="3" height="1" fill="#D3E0E7"/>
<rect x="13" y="14" width="10" height="1" fill="#566675"/>
<rect x="23" y="14" width="4" height="1" fill="#D3E0E7"/>
<rect x="27" y="14" width="1" height="1" fill="#566675"/>
<rect x="7" y="15" width="1" height="1" fill="#566675"/>
<rect x="8" y="15" width="5" height="1" fill="#D3E0E7"/>
<rect x="13" y="15" width="4" height="1" fill="#566675"/>
<rect x="17" y="15" width="2" height="1" fill="#02CBED"/>
<rect x="19" y="15" width="4" height="1" fill="#566675"/>
<rect x="23" y="15" width="4" height="1" fill="#D3E0E7"/>
<rect x="27" y="15" width="1" height="1" fill="#566675"/>
<rect x="7" y="16" width="1" height="1" fill="#566675"/>
<rect x="8" y="16" width="4" height="1" fill="#D3E0E7"/>
<rect x="12" y="16" width="4" height="1" fill="#566675"/>
<rect x="16" y="16" width="4" height="1" fill="#02CBED"/>
<rect x="20" y="16" width="4" height="1" fill="#566675"/>
<rect x="24" y="16" width="3" height="1" fill="#D3E0E7"/>
<rect x="27" y="16" width="1" height="1" fill="#566675"/>
<rect x="6" y="17" width="1" height="1" fill="#566675"/>
<rect x="7" y="17" width="5" height="1" fill="#D3E0E7"/>
<rect x="12" y="17" width="3" height="1" fill="#566675"/>
<rect x="15" y="17" width="6" height="1" fill="#02CBED"/>
<rect x="21" y="17" width="3" height="1" fill="#566675"/>
<rect x="24" y="17" width="4" height="1" fill="#D3E0E7"/>
<rect x="28" y="17" width="2" height="1" fill="#566675"/>
<rect x="6" y="18" width="1" height="1" fill="#566675"/>
<rect x="7" y="18" width="5" height="1" fill="#D3E0E7"/>
<rect x="12" y="18" width="3" height="1" fill="#566675"/>
<rect x="15" y="18" width="6" height="1" fill="#02CBED"/>
<rect x="21" y="18" width="3" height="1" fill="#566675"/>
<rect x="24" y="18" width="6" height="1" fill="#D3E0E7"/>
<rect x="30" y="18" width="1" height="1" fill="#566675"/>
<rect x="7" y="19" width="2" height="1" fill="#566675"/>
<rect x="9" y="19" width="3" height="1" fill="#D3E0E7"/>
<rect x="12" y="19" width="4" height="1" fill="#566675"/>
<rect x="16" y="19" width="4" height="1" fill="#02CBED"/>
<rect x="20" y="19" width="4" height="1" fill="#566675"/>
<rect x="24" y="19" width="6" height="1" fill="#D3E0E7"/>
<rect x="30" y="19" width="1" height="1" fill="#566675"/>
<rect x="9" y="20" width="1" height="1" fill="#566675"/>
<rect x="10" y="20" width="3" height="1" fill="#D3E0E7"/>
<rect x="13" y="20" width="4" height="1" fill="#566675"/>
<rect x="17" y="20" width="2" height="1" fill="#02CBED"/>
<rect x="19" y="20" width="4" height="1" fill="#566675"/>
<rect x="23" y="20" width="6" height="1" fill="#D3E0E7"/>
<rect x="29" y="20" width="1" height="1" fill="#566675"/>
<rect x="9" y="21" width="1" height="1" fill="#566675"/>
<rect x="10" y="21" width="3" height="1" fill="#D3E0E7"/>
<rect x="13" y="21" width="10" height="1" fill="#566675"/>
<rect x="23" y="21" width="6" height="1" fill="#D3E0E7"/>
<rect x="29" y="21" width="1" height="1" fill="#566675"/>
<rect x="9" y="22" width="1" height="1" fill="#566675"/>
<rect x="10" y="22" width="4" height="1" fill="#D3E0E7"/>
<rect x="14" y="22" width="8" height="1" fill="#566675"/>
<rect x="22" y="22" width="5" height="1" fill="#D3E0E7"/>
<rect x="27" y="22" width="2" height="1" fill="#566675"/>
<rect x="8" y="23" width="1" height="1" fill="#566675"/>
<rect x="9" y="23" width="7" height="1" fill="#D3E0E7"/>
<rect x="16" y="23" width="4" height="1" fill="#566675"/>
<rect x="20" y="23" width="6" height="1" fill="#D3E0E7"/>
<rect x="26" y="23" width="1" height="1" fill="#566675"/>
<rect x="8" y="24" width="1" height="1" fill="#566675"/>
<rect x="9" y="24" width="17" height="1" fill="#D3E0E7"/>
<rect x="26" y="24" width="1" height="1" fill="#566675"/>
<rect x="8" y="25" width="1" height="1" fill="#566675"/>
<rect x="9" y="25" width="18" height="1" fill="#D3E0E7"/>
<rect x="27" y="25" width="1" height="1" fill="#566675"/>
<rect x="9" y="26" width="1" height="1" fill="#566675"/>
<rect x="10" y="26" width="2" height="1" fill="#D3E0E7"/>
<rect x="12" y="26" width="3" height="1" fill="#566675"/>
<rect x="15" y="26" width="12" height="1" fill="#D3E0E7"/>
<rect x="27" y="26" width="1" height="1" fill="#566675"/>
<rect x="9" y="27" width="3" height="1" fill="#566675"/>
<rect x="14" y="27" width="1" height="1" fill="#566675"/>
<rect x="15" y="27" width="5" height="1" fill="#D3E0E7"/>
<rect x="20" y="27" width="3" height="1" fill="#566675"/>
<rect x="23" y="27" width="3" height="1" fill="#D3E0E7"/>
<rect x="26" y="27" width="2" height="1" fill="#566675"/>
<rect x="15" y="28" width="1" height="1" fill="#566675"/>
<rect x="16" y="28" width="3" height="1" fill="#D3E0E7"/>
<rect x="19" y="28" width="1" height="1" fill="#566675"/>
<rect x="23" y="28" width="3" height="1" fill="#566675"/>
<rect x="15" y="29" width="2" height="1" fill="#566675"/>
<rect x="17" y="29" width="2" height="1" fill="#D3E0E7"/>
<rect x="19" y="29" width="1" height="1" fill="#566675"/>
<rect x="17" y="30" width="2" height="1" fill="#566675"/>
</svg>
