<svg xmlns="http://www.w3.org/2000/svg" width="24" height="24" viewBox="0 0 24 24" shape-rendering="crispEdges">
<title>VQEAF OS – themes – 24px runtime matching</title>
<rect x="9" y="3" width="6" height="1" fill="#23313A"/>
<rect x="7" y="4" width="2" height="1" fill="#23313A"/>
<rect x="9" y="4" width="6" height="1" fill="#D3E0E7"/>
<rect x="15" y="4" width="2" height="1" fill="#23313A"/>
<rect x="6" y="5" width="1" height="1" fill="#23313A"/>
<rect x="7" y="5" width="6" height="1" fill="#D3E0E7"/>
<rect x="13" y="5" width="1" height="1" fill="#235FD9"/>
<rect x="14" y="5" width="3" height="1" fill="#D3E0E7"/>
<rect x="17" y="5" width="1" height="1" fill="#23313A"/>
<rect x="5" y="6" width="1" height="1" fill="#23313A"/>
<rect x="6" y="6" width="1" height="1" fill="#D3E0E7"/>
<rect x="7" y="6" width="1" height="1" fill="#F5544C"/>
<rect x="8" y="6" width="4" height="1" fill="#D3E0E7"/>
<rect x="12" y="6" width="3" height="1" fill="#235FD9"/>
<rect x="15" y="6" width="3" height="1" fill="#D3E0E7"/>
<rect x="18" y="6" width="1" height="1" fill="#23313A"/>
<rect x="4" y="7" width="1" height="1" fill="#23313A"/>
<rect x="5" y="7" width="1" height="1" fill="#D3E0E7"/>
<rect x="6" y="7" width="3" height="1" fill="#F5544C"/>
<rect x="9" y="7" width="4" height="1" fill="#D3E0E7"/>
<rect x="13" y="7" width="1" height="1" fill="#235FD9"/>
<rect x="14" y="7" width="5" height="1" fill="#D3E0E7"/>
<rect x="19" y="7" width="1" height="1" fill="#23313A"/>
<rect x="4" y="8" width="1" height="1" fill="#23313A"/>
<rect x="5" y="8" width="2" height="1" fill="#D3E0E7"/>
<rect x="7" y="8" width="1" height="1" fill="#F5544C"/>
<rect x="8" y="8" width="11" height="1" fill="#D3E0E7"/>
<rect x="19" y="8" width="1" height="1" fill="#23313A"/>
<rect x="3" y="9" width="1" height="1" fill="#23313A"/>
<rect x="4" y="9" width="16" height="1" fill="#D3E0E7"/>
<rect x="20" y="9" width="1" height="1" fill="#23313A"/>
<rect x="3" y="10" width="1" height="1" fill="#23313A"/>
<rect x="4" y="10" width="13" height="1" fill="#D3E0E7"/>
<rect x="17" y="10" width="1" height="1" fill="#16CD60"/>
<rect x="18" y="10" width="2" height="1" fill="#D3E0E7"/>
<rect x="20" y="10" width="1" height="1" fill="#23313A"/>
<rect x="3" y="11" width="1" height="1" fill="#23313A"/>
<rect x="4" y="11" width="12" height="1" fill="#D3E0E7"/>
<rect x="16" y="11" width="3" height="1" fill="#16CD60"/>
<rect x="19" y="11" width="1" height="1" fill="#D3E0E7"/>
<rect x="20" y="11" width="1" height="1" fill="#23313A"/>
<rect x="3" y="12" width="1" height="1" fill="#23313A"/>
<rect x="4" y="12" width="13" height="1" fill="#D3E0E7"/>
<rect x="17" y="12" width="1" height="1" fill="#16CD60"/>
<rect x="18" y="12" width="2" height="1" fill="#D3E0E7"/>
<rect x="20" y="12" width="1" height="1" fill="#23313A"/>
<rect x="3" y="13" width="1" height="1" fill="#23313A"/>
<rect x="4" y="13" width="16" height="1" fill="#D3E0E7"/>
<rect x="20" y="13" width="1" height="1" fill="#23313A"/>
<rect x="3" y="14" width="1" height="1" fill="#23313A"/>
<rect x="4" y="14" width="16" height="1" fill="#D3E0E7"/>
<rect x="20" y="14" width="1" height="1" fill="#23313A"/>
<rect x="4" y="15" width="1" height="1" fill="#23313A"/>
<rect x="5" y="15" width="3" height="1" fill="#D3E0E7"/>
<rect x="8" y="15" width="1" height="1" fill="#F5EB42"/>
<rect x="9" y="15" width="5" height="1" fill="#D3E0E7"/>
<rect x="16" y="15" width="3" height="1" fill="#D3E0E7"/>
<rect x="19" y="15" width="1" height="1" fill="#23313A"/>
<rect x="4" y="16" width="1" height="1" fill="#23313A"/>
<rect x="5" y="16" width="2" height="1" fill="#D3E0E7"/>
<rect x="7" y="16" width="3" height="1" fill="#F5EB42"/>
<rect x="10" y="16" width="3" height="1" fill="#D3E0E7"/>
<rect x="17" y="16" width="2" height="1" fill="#D3E0E7"/>
<rect x="19" y="16" width="1" height="1" fill="#23313A"/>
<rect x="5" y="17" width="1" height="1" fill="#23313A"/>
<rect x="6" y="17" width="2" height="1" fill="#D3E0E7"/>
<rect x="8" y="17" width="1" height="1" fill="#F5EB42"/>
<rect x="9" y="17" width="4" height="1" fill="#D3E0E7"/>
<rect x="17" y="17" width="1" height="1" fill="#D3E0E7"/>
<rect x="18" y="17" width="1" height="1" fill="#23313A"/>
<rect x="6" y="18" width="1" height="1" fill="#23313A"/>
<rect x="7" y="18" width="7" height="1" fill="#D3E0E7"/>
<rect x="16" y="18" width="1" height="1" fill="#D3E0E7"/>
<rect x="17" y="18" width="1" height="1" fill="#23313A"/>
<rect x="7" y="19" width="2" height="1" fill="#23313A"/>
<rect x="9" y="19" width="6" height="1" fill="#D3E0E7"/>
<rect x="15" y="19" width="2" height="1" fill="#23313A"/>
<rect x="9" y="20" width="6" height="1" fill="#23313A"/>
</svg>
